PathFileType	4	(X/Y/Z)	/home/abdul/Desktop/myosuite/custom_workspace/IK/output/S1_12_1.trc
DataRate	CameraRate	NumFrames	NumMarkers	Units	OrigDataRate	OrigDataStartFrame	OrigNumFrames
200.0	200.0	66	3	mm	200.0	2195	3511
Frame#	Time	V_Shoulder			V_Elbow			V_Wrist		
		X1	Y1	Z1	X2	Y2	Z2	X3	Y3	Z3

2195	10.97	-188.76800107923125	474.04772199569976	364.8501285206223	-295.48055991102035	339.1417473282311	31.72228793774035	-155.2679427048452	112.13374397953075	85.23626054643944
2196	10.975	-188.74135999647604	474.09476895216267	364.8697109990421	-295.44111354407755	339.24322426949595	31.70545645558998	-155.27257259945918	112.19024410149247	85.15715075305192
2197	10.98	-188.71502064583464	474.1441683558929	364.8889523293863	-295.4032563954761	339.3460135798771	31.689285103553576	-155.27773114813382	112.24862142807541	85.07901693702642
2198	10.985	-188.68906270795438	474.19596472343824	364.9078073087423	-295.36689780288	339.45026383967615	31.673606610927454	-155.2834177113234	112.30896381358413	85.0017486520251
2199	10.99	-188.6635644010977	474.2502003433903	364.9262314317878	-295.33194682016983	339.55612118446277	31.658254665309546	-155.28963419750738	112.37135473387215	84.92523577540237
2200	10.995	-188.63860230119369	474.30691502051104	364.9441809176997	-295.2983122832983	339.6637287848904	31.64306413715164	-155.29638497607692	112.43587292363975	84.84936875302478
2201	11.0	-188.61425116736305	474.3661458225863	364.96161273305853	-295.26590286711536	339.7732263445456	31.62787128814739	-155.3036767748953	112.50259203735652	84.77403882989995
2202	11.005	-188.5905837734623	474.42792683137094	364.9784846110078	-295.23462713385925	339.8847496176396	31.612513963901176	-155.31151856288545	112.5715803355535	84.69913826645129
2203	11.01	-188.56767074616656	474.49228889899103	364.99475506695234	-295.2043935740684	339.9984299482051	31.596831771454553	-155.31992141806148	112.64290039807416	84.62456054039838
2204	11.015	-188.54558041008022	474.55925941116453	365.0103834111012	-295.1751106407254	340.1143938323057	31.580666242368686	-155.32889838148452	112.7166088657098	84.5502005343206
2205	11.02	-188.5243786403344	474.62886205858587	365.0253297581797	-295.14668677748784	340.2327625046102	31.563860982172663	-155.33846429768403	112.79275621147022	84.47595470909152
2206	11.025	-188.50412872309698	474.70111661779714	365.0395550346514	-295.1190304418982	340.35365155051846	31.54626180708782	-155.34863564214922	112.87138654255963	84.40172126347494
2207	11.03	-188.48489122438687	474.77603874283733	365.0530209838044	-295.0920501244914	340.47717054486577	31.527716869026165	-155.3594303365561	112.95253743393906	84.3274002802662
2208	11.035	-188.4667238675504	474.8536397689217	365.0656901690634	-295.0656543647416	340.60342271806496	31.508076769936867	-155.37086755245676	113.03623979416346	84.25289385944795
2209	11.04	-188.44968141971927	474.9339265293532	365.07752597589825	-295.03975176479366	340.7325046503816	31.487194666637336	-155.38296750421824	113.12251776398247	84.17810623890297
2210	11.045	-188.43381558753435	475.0169011868166	365.0884926127	-295.014251001934	340.86450599487483	31.464926367314767	-155.39575123205873	113.21138864799329	84.10294390329142
2211	11.05	-188.41917492238113	475.1025610801361	365.09855511099505	-294.9890608407404	340.99950922937376	31.441130420919755	-155.40924037608687	113.30286287943049	84.02731568175264
2212	11.055	-188.40580473534342	475.1908985875146	365.1076793253679	-294.9640901458435	341.137589437703	31.415668200695478	-155.4234569423092	113.39694401797357	83.95113283513399
2213	11.06	-188.39374702204466	475.2819010071883	365.11583193345103	-294.93924789619996	341.2788141202167	31.388403983094186	-155.43842306162617	113.4936287802499	83.8743091334798
2214	11.065	-188.383040397507	475.3755504563539	365.1229804363342	-294.9144432017547	341.4232430335535	31.359205023327167	-155.4541607428941	113.59290710250986	83.79676092453425
2215	11.07	-188.3737200411189	475.47182378913044	365.12909315973184	-294.8895853233232	341.57092805938186	31.327941628775534	-155.4706916211817	113.69476223475257	83.7184071940201
2216	11.075	-188.365817651764	475.5706925342294	365.134139256229	-294.86458369648426	341.72191310177254	31.294487231456888	-155.48803670240247	113.79917086538808	83.63916961845442
2217	11.08	-188.35936141312547	475.67212285290503	365.1380887089114	-294.8393479602158	341.8762340127053	31.25871846069809	-155.50621610555115	113.90610327533368	83.55897261125008
2218	11.085	-188.35437596914235	475.77607551765396	365.14091233666267	-294.8137879909515	342.03391854510204	31.22051521710716	-155.52524880381884	114.01552352026354	83.47774336283095
2219	11.09	-188.35088240955727	475.8825059120311	365.1425818013858	-294.78781394266764	342.1949863326645	31.17976074886853	-155.5451523659019	114.12738963955822	83.39541187545757
2220	11.095	-188.34889826545813	475.9913640518367	365.1430696173864	-294.7613362935408	342.3594488956985	31.13634173130624	-155.56594269885724	114.24165389033968	83.31191099342206
2221	11.1	-188.34843751468156	476.10259462782295	365.1423491631217	-294.7342658996418	342.52730967201353	31.090148350569766	-155.58763379388984	114.35826300482677	83.22717642922356
2222	11.105	-188.34951059691107	476.2161370699553	365.140394695494	-294.7065140560528	342.6985640719072	31.04107439219834	-155.61023747648477	114.47715846910774	83.14114678628377
2223	11.11	-188.3521244382686	476.33192563315333	365.13718136683525	-294.6779925657122	342.873199556173	30.989017335212115	-155.6337631623185	114.59827682130074	83.05376357870266
2224	11.115	-188.35628248516832	476.44988950432327	365.13268524469885	-294.64861381620653	343.0511957360103	30.933878452264366	-155.65821762039883	114.72154996696294	82.96497124849105
2225	11.12	-188.3619847471692	476.56995293038875	365.126883334541	-294.6182908646414	343.2325244936641	30.875562916268414	-155.68360474489137	114.84690550951176	82.8747171806495
2226	11.125	-188.36922784853405	476.6920353669104	365.1197536053426	-294.58693753063767	343.41715012258567	30.81397991378752	-155.70992533709153	114.97426709334268	82.78295171639309
2227	11.13	-188.3780050881762	476.81605164678604	365.11127501818805	-294.55446849740827	343.60502948587185	30.749042765347102	-155.73717689899365	115.10355475726377	82.6896281647501
2228	11.135	-188.38830650764746	476.9419121684159	365.1014275577829	-294.5207994207834	343.7961121917251	30.68066905269734	-155.76535343989343	115.23468529582112	82.59470281268986
2229	11.14	-188.4001189667985	477.06952310261937	365.0901922668627	-294.48584704596567	343.99034078466303	30.608780752921597	-155.7944452974358	115.36757262606014	82.49813493386314
2230	11.145	-188.41342622671917	477.198786617494	365.0775512834078	-294.4495293317095	344.18765095120807	30.53330437915409	-155.8244389744869	115.50212815725726	82.39988679596829
2231	11.15	-188.4282090395471	477.3296011203168	365.063487880551	-294.411765581538	344.3879717387932	30.454171127539404	-155.8553169931654	115.63826116116329	82.29992366668688
2232	11.155	-188.44444524471297	477.46186151550324	365.0479865090303	-294.37247658152944	344.5912257866384	30.371317029938396	-155.8870577673157	115.77587914032549	82.19821381806824
2233	11.16	-188.46210987117624	477.5954594775585	365.03103284201217	-294.33158474412915	344.7973295673723	30.284683111761396	-155.91963549464379	115.91488819209862	82.09472852917997
2234	11.165	-188.48117524518833	477.73028373788344	365.01261382208077	-294.28901425737456	345.006193638209	30.19421555419075	-155.95302006966173	116.05519336601654	81.98944208678597
2235	11.17	-188.50161110311038	477.86622038422956	364.99271771016043	-294.2446912388505	345.2177229005221	30.099865859942753	-155.98717701850677	116.19669901227465	81.88233178376126
2236	11.175	-188.5233847088001	478.0031531715388	364.97133413611704	-294.1985438936355	345.4318168667026	30.001591021614317	-156.02206745660624	116.33930911916904	81.7733779149087
2237	11.18	-188.54646097507518	478.1409638428484	364.94845415075764	-294.15050267544177	345.6483699332347	29.89935369156359	-156.05764807005863	116.48292763744956	81.6625637698039
2238	11.185	-188.57080258875496	478.27953245889734	364.92407027892926	-294.10050045010894	345.86727165897383	29.793122352187144	-156.09387112148977	116.62745878967121	81.54987562226259
2239	11.19	-188.59637013877696	478.4187377350332	364.89817657339637	-294.048472660566	346.08840704766703	29.68287148538007	-156.13068448102155	116.77280736276899	81.43530271600207
2240	11.195	-188.62312224688353	478.55845738398557	364.8707686691635	-293.99435749234675	346.3116568338113	29.568581739900004	-156.16803168286373	116.91887898223655	81.31883724605058
2241	11.2	-188.65101570037413	478.6985684630516	364.8418438378937	-293.93809603871694	346.5368977710069	29.4502400953025	-156.20585200790154	117.06558036645387	81.2004743354513
2242	11.205	-188.68000558642208	478.8389477242245	364.8114010420625	-293.879632464454	346.7640029220215	29.32784002107358	-156.24408059250987	117.21281955988715	81.08021200680668
2243	11.21	-188.7100454274565	478.9794719657861	364.77944098848025	-293.81891416731	346.99284194984034	29.2013816295562	-156.2826485636743	117.36050614406867	80.95805114821664
2244	11.215	-188.74108731711942	479.12001838388824	364.745966180807	-293.755891936187	347.22328140904114	29.070871821251025	-156.3214832003459	117.50855142545774	80.8339954731799
2245	11.22	-188.7730820563144	479.2604649226551	364.710980970683	-293.6905201050596	347.45518503688857	28.936324421068175	-156.36050812079827	117.6568685994825	80.7080514740507
2246	11.225	-188.80597928887468	479.4006906213528	364.6744916070977	-293.62275670169106	347.68841404360126	28.797760304115748	-156.39964349559318	117.80537289026465	80.5802283686746
2247	11.23	-188.8397276363904	479.5405759571983	364.6365062836194	-293.552563590214	347.92282740130247	28.655207509632547	-156.43880628560055	117.95398166573472	80.4505380398644
2248	11.235	-188.87427483174847	479.68000318240894	364.59703518311454	-293.47990660666926	348.1582821312142	28.50870134170631	-156.47791050435274	118.10261452804954	80.31899496742273
2249	11.24	-188.9095678509556	479.81885665412784	364.5560905195934	-293.4047556866352	348.3946335887093	28.358284455464577	-156.51686750385312	118.25119337942857	80.1856161524681
2250	11.245	-188.94555304283054	479.95702315590944	364.51368657682514	-293.3270849841183	348.6317357458788	28.204006927482308	-156.55558628279812	118.39964246372539	80.05042103387837
2251	11.25	-188.9821762561722	480.0943922094939	364.46983974337945	-293.2468729809216	348.86944147131476	28.045926309218203	-156.5939738160153	118.54788838424709	79.91343139672725
2252	11.255	-189.01938296403037	480.23085637565765	364.4245685437656	-293.1641025857626	349.1076028068505	27.884107662369374	-156.63193540376955	118.69586009852264	79.7746712726561
2253	11.26	-189.0571183847275	480.3663115429875	364.377893665353	-293.0787612224666	349.3460712410299	27.718623575121153	-156.6693750394433	118.84348889090278	79.63416683219192
2254	11.265	-189.0953275993021	480.50065720348886	364.3298379807797	-292.9908409066219	349.5846979791112	27.549554158363907	-156.7061957939597	118.99070832404473	79.49194626909679
2255	11.27	-189.1339556650714	480.6337967140146	364.28042656556914	-292.9003383101493	349.82333420943235	27.376987021051647	-156.74230021518787	119.13745417049546	79.34803967690753
2256	11.275	-189.17294772503314	480.76563754256904	364.22968671070066	-292.8072548133064	350.0618313659894	27.20101722398627	-156.77759074045042	119.28366432573435	79.20247891790149
2257	11.28	-189.21224911285563	480.89609149862537	364.17764792989857	-292.71159654371365	350.30004138709216	27.021747211425918	-156.81197012014417	119.42927870417095	79.05529748480015
2258	11.285	-189.25180545322874	481.0250749466707	364.1243419614303	-292.61337440206614	350.5378169699758	26.839286720035087	-156.845341850389	119.57423911971286	78.90653035559913
2259	11.29	-189.29156275738055	481.1525090022831	364.069802764228	-292.51260407426366	350.7750118212516	26.653752664816658	-156.87761061253366	119.71848915262339	78.75621384198766
2260	11.295	-189.3314675135878	481.27831971012574	364.0140665081722	-292.4093060297669	351.01148090308686	26.465269001790876	-156.908682717278	119.86197400447708	78.60438543189385
